<?xml version="1.0" standalone="no"?>
<!DOCTYPE svg PUBLIC "-//W3C//DTD SVG 20010904//EN"
 "http://www.w3.org/TR/2001/REC-SVG-20010904/DTD/svg10.dtd">
<svg version="1.0" xmlns="http://www.w3.org/2000/svg"
 width="603.000000pt" height="531.000000pt" viewBox="0 0 603.000000 531.000000"
 preserveAspectRatio="xMidYMid meet">
<metadata>

</metadata>
<g transform="translate(0.000000,531.000000) scale(0.100000,-0.100000)"
fill="#000000" stroke="none">
<path d="M2690 5224 c-280 -37 -559 -119 -798 -234 -178 -86 -284 -150 -431
-260 -556 -416 -905 -1000 -1018 -1705 -25 -157 -25 -572 1 -735 134 -856 652
-1567 1416 -1944 370 -183 728 -266 1142 -266 233 0 413 22 631 76 849 213
1537 849 1815 1679 93 279 123 458 129 770 7 351 -24 559 -132 881 -87 259
-209 496 -361 699 -35 48 -64 91 -64 95 0 5 -11 17 -25 28 -14 11 -25 24 -25
30 0 5 -16 24 -35 41 -19 17 -35 32 -35 35 0 7 -140 139 -215 203 -178 152
-335 255 -554 362 -265 130 -533 210 -831 247 -144 18 -469 17 -610 -2z m640
-90 c419 -54 835 -226 1184 -489 518 -390 859 -972 962 -1645 25 -159 25 -519
1 -680 -134 -879 -677 -1597 -1477 -1948 -210 -92 -426 -153 -670 -188 -159
-23 -494 -23 -655 0 -465 66 -884 246 -1240 533 -103 83 -209 182 -216 200 -2
6 -42 51 -88 99 -353 370 -587 932 -620 1490 -28 462 69 915 284 1321 245 465
649 854 1120 1079 444 212 929 290 1415 228z"/>
<path d="M2840 4990 c-304 -22 -581 -96 -855 -230 -390 -190 -695 -457 -936
-820 -81 -121 -192 -341 -244 -483 -239 -654 -169 -1393 189 -1995 186 -313
481 -612 791 -802 115 -71 345 -178 471 -219 250 -82 492 -121 747 -121 685 0
1326 294 1773 813 279 324 459 712 540 1162 15 79 18 154 19 360 0 229 -3 275
-23 388 -70 386 -217 725 -444 1026 -45 58 -85 108 -90 109 -4 2 -8 10 -8 17
0 15 -190 196 -295 280 -191 154 -468 310 -679 384 -297 104 -653 153 -956
131z m430 -91 c747 -83 1415 -555 1756 -1239 228 -458 292 -981 183 -1490 -53
-247 -180 -545 -324 -760 -437 -654 -1165 -1031 -1945 -1007 -335 10 -613 77
-905 217 -169 81 -246 127 -391 236 -100 75 -284 244 -309 285 -5 9 -50 64
-100 123 -226 270 -383 612 -456 1001 -27 139 -37 491 -20 646 38 331 171 700
352 979 173 265 434 520 710 691 97 60 312 165 414 202 83 29 328 90 435 107
158 26 415 30 600 9z"/>
<path d="M2880 4794 c-19 -2 -82 -9 -140 -15 -128 -13 -379 -76 -503 -125
-574 -226 -1025 -688 -1233 -1260 -87 -242 -126 -466 -126 -729 0 -340 68
-636 217 -940 280 -574 802 -989 1430 -1138 525 -125 1095 -37 1574 242 189
111 426 317 570 496 242 301 405 684 456 1068 17 135 20 383 5 507 -69 571
-369 1109 -802 1441 -305 234 -644 380 -1009 433 -106 16 -371 28 -439 20z
m375 -89 c368 -46 695 -178 990 -399 786 -592 1042 -1656 611 -2541 -262 -541
-751 -942 -1327 -1089 -185 -48 -330 -66 -519 -66 -462 0 -884 143 -1255 423
-93 71 -295 264 -295 283 0 7 -11 21 -25 32 -14 11 -25 23 -25 27 0 4 -15 25
-34 48 -55 69 -171 247 -208 322 -86 171 -161 407 -194 611 -25 149 -25 456
-1 611 106 677 529 1250 1143 1549 349 169 756 237 1139 189z"/>
<path d="M2916 4243 c-31 -38 -64 -77 -75 -88 -10 -11 -27 -35 -37 -52 -10
-18 -21 -33 -25 -33 -4 0 -20 -25 -35 -55 -16 -30 -31 -55 -35 -55 -3 0 -19
-30 -34 -67 -16 -38 -32 -70 -35 -73 -9 -7 -60 -161 -60 -182 0 -9 -4 -18 -10
-20 -5 -1 -19 -59 -31 -128 -18 -108 -21 -151 -16 -315 5 -177 25 -354 46
-400 5 -11 19 -60 31 -110 11 -49 30 -107 41 -128 10 -21 19 -43 19 -51 0 -18
-36 -34 -110 -46 -88 -16 -162 -35 -196 -53 -16 -8 -54 -22 -84 -32 -30 -10
-62 -23 -70 -30 -8 -7 -33 -20 -55 -29 -22 -10 -57 -29 -77 -43 -30 -21 -38
-32 -38 -57 0 -18 5 -37 12 -44 17 -17 1929 -17 1946 0 22 22 14 63 -18 91
-33 30 -194 108 -261 128 -24 7 -47 17 -50 21 -6 9 -211 58 -244 58 -11 0 -28
7 -37 14 -15 11 -16 17 -5 47 6 19 15 36 19 39 8 6 58 196 58 222 0 9 4 18 9
20 14 5 42 221 48 373 5 137 -4 264 -29 388 -7 31 -16 57 -20 57 -4 0 -8 7 -8
14 0 25 -52 181 -61 184 -5 2 -9 8 -9 14 0 18 -52 128 -61 128 -4 0 -11 10
-15 22 -7 22 -96 158 -128 194 -105 121 -131 144 -167 144 -33 0 -42 -7 -93
-67z m44 -391 l0 -248 -62 -47 c-35 -26 -74 -56 -88 -67 -119 -96 -159 -124
-167 -116 -12 11 39 268 57 291 5 6 20 44 34 84 14 41 30 77 34 80 4 4 20 31
35 61 16 30 38 69 50 85 75 104 92 125 99 125 4 0 8 -112 8 -248z m130 241 c0
-5 12 -21 26 -38 14 -16 35 -47 47 -67 11 -21 24 -38 27 -38 4 0 20 -28 35
-62 16 -35 33 -68 39 -74 6 -6 22 -44 35 -85 14 -41 27 -76 31 -79 16 -13 66
-267 55 -278 -6 -7 -87 49 -103 71 -7 9 -19 17 -26 17 -8 0 -16 7 -20 15 -3 8
-12 15 -21 15 -8 0 -15 7 -15 15 0 8 -7 15 -15 15 -8 0 -15 5 -15 10 0 6 -7
10 -15 10 -8 0 -15 5 -15 10 0 6 -5 10 -10 10 -6 0 -22 11 -35 25 l-25 24 0
246 c0 157 4 245 10 245 6 0 10 -3 10 -7z m-130 -738 l0 -95 -52 -40 c-29 -22
-64 -50 -78 -62 -14 -11 -41 -31 -61 -44 -21 -13 -39 -27 -40 -31 -6 -12 -66
-53 -79 -53 -5 0 -10 20 -10 45 0 25 -4 45 -10 45 -5 0 -10 16 -10 36 0 40 20
64 91 111 22 14 39 30 39 35 0 4 10 13 23 18 12 6 56 37 97 70 41 32 78 59 83
60 4 0 7 -43 7 -95z m133 85 c72 -58 166 -130 171 -130 3 0 16 -9 28 -20 13
-11 41 -36 64 -55 l41 -34 -5 -83 c-2 -46 -6 -85 -9 -87 -8 -10 -87 45 -168
116 -10 10 -24 20 -30 23 -6 3 -34 23 -63 45 l-51 40 -1 98 c0 53 2 97 5 97 3
0 11 -4 18 -10z m-133 -640 l0 -310 -86 0 c-55 0 -90 4 -98 13 -6 6 -25 55
-41 107 -15 52 -32 102 -36 110 -5 8 -15 49 -24 90 -15 73 -14 75 6 90 12 8
32 24 44 36 13 12 39 31 59 43 20 13 39 28 43 34 5 7 28 26 53 42 25 16 49 36
53 42 23 37 27 -4 27 -297z m150 283 c10 -10 47 -38 80 -63 34 -25 78 -60 98
-78 20 -17 45 -35 55 -38 9 -3 17 -15 17 -26 0 -36 -23 -148 -30 -148 -4 0
-10 -15 -14 -32 -12 -62 -50 -173 -65 -190 -13 -15 -32 -18 -98 -18 l-83 0 0
305 c0 197 4 305 10 305 6 0 19 -8 30 -17z m244 -727 c54 -9 104 -20 110 -24
6 -5 45 -17 86 -27 89 -21 150 -44 150 -56 0 -5 -291 -9 -685 -9 -472 0 -685
3 -685 11 0 14 49 33 140 54 41 10 80 21 85 25 8 7 90 21 250 44 71 10 455 -2
549 -18z"/>
<path d="M2306 1884 c-13 -35 -7 -54 19 -54 14 0 25 -6 25 -13 0 -8 -36 -155
-80 -328 -44 -173 -80 -322 -80 -332 0 -22 22 -31 54 -23 21 5 27 20 55 133
56 223 47 203 86 203 19 0 35 -5 35 -10 0 -41 44 -307 52 -317 6 -7 21 -13 33
-13 44 0 46 17 20 176 -14 82 -25 156 -25 165 0 9 14 22 30 29 106 44 176 244
118 337 -32 52 -68 63 -212 63 -104 0 -125 -3 -130 -16z m252 -70 c47 -32 19
-193 -42 -238 -20 -15 -52 -26 -89 -31 -54 -6 -58 -5 -53 12 3 10 19 75 37
146 l31 127 47 0 c26 0 56 -7 69 -16z"/>
<path d="M2813 1660 c-71 -43 -137 -177 -155 -314 -13 -97 0 -155 40 -193 23
-22 34 -24 80 -21 37 3 60 12 78 29 75 68 134 220 135 347 1 88 -4 107 -39
145 -32 33 -91 37 -139 7z m93 -96 c28 -151 -94 -429 -153 -348 -30 41 -9 213
38 307 30 60 48 77 80 77 24 0 29 -5 35 -36z"/>
<path d="M3096 1662 c-2 -4 -12 -36 -21 -71 -19 -74 -12 -91 32 -75 25 9 33
22 49 82 4 13 144 18 144 5 0 -5 -77 -100 -170 -213 -93 -113 -170 -213 -170
-223 0 -10 11 -22 26 -27 30 -12 264 -13 282 -2 7 5 21 38 31 75 16 55 17 68
6 77 -24 20 -68 -9 -78 -52 l-9 -38 -69 0 c-40 0 -69 4 -69 10 0 6 67 91 150
190 183 220 185 222 170 249 -10 20 -19 21 -155 21 -79 0 -146 -3 -149 -8z"/>
<path d="M3506 1653 c-3 -10 -30 -111 -61 -226 -51 -187 -55 -211 -45 -243 30
-90 125 -47 208 93 34 60 59 83 48 46 -3 -10 -21 -76 -41 -148 -20 -71 -38
-138 -41 -147 -8 -26 -33 -22 -94 17 -64 42 -86 44 -102 10 -15 -33 -6 -41 89
-90 l71 -37 40 22 c22 12 49 39 60 59 18 31 172 568 184 636 2 17 -3 21 -34
23 -36 3 -38 2 -67 -56 -33 -65 -161 -289 -195 -339 -23 -36 -46 -43 -46 -15
0 10 25 103 55 207 30 103 55 192 55 197 0 4 -18 8 -39 8 -29 0 -41 -5 -45
-17z"/>
</g>
</svg>
